<?xml version="1.0" standalone="no"?>
<!DOCTYPE svg PUBLIC "-//W3C//DTD SVG 20010904//EN"
 "http://www.w3.org/TR/2001/REC-SVG-20010904/DTD/svg10.dtd">
<svg version="1.0" xmlns="http://www.w3.org/2000/svg"
 width="200.000000pt" height="200.000000pt" viewBox="0 0 200.000000 200.000000"
 preserveAspectRatio="xMidYMid meet">
<metadata>
Created by potrace 1.11, written by Peter Selinger 2001-2013
</metadata>
<g transform="translate(0.000000,200.000000) scale(0.100000,-0.100000)"
fill="#000000" stroke="none">
<path d="M0 1585 c0 -411 0 -415 20 -415 12 0 20 6 18 13 -6 25 59 87 91 87 6
0 11 -7 11 -16 0 -11 6 -14 20 -9 24 8 38 -18 21 -39 -8 -9 -8 -16 -2 -20 12
-8 3 -36 -10 -36 -5 0 -9 7 -9 15 0 12 -5 12 -35 -3 -26 -13 -31 -19 -21 -27
7 -5 11 -16 9 -23 -3 -8 5 -11 29 -8 21 2 34 9 36 20 2 9 9 16 17 16 7 0 15 7
19 15 3 8 10 15 16 15 16 0 12 -22 -7 -35 -13 -10 -15 -16 -6 -26 8 -11 3 -18
-23 -30 -19 -9 -34 -13 -34 -8 0 5 -7 9 -15 9 -8 0 -15 -7 -15 -15 0 -8 5 -15
10 -15 6 0 10 -7 10 -15 0 -8 8 -15 18 -15 15 0 15 2 2 11 -11 8 -7 9 19 5 43
-8 49 -13 28 -29 -12 -9 -14 -20 -8 -47 4 -19 3 -55 -2 -79 -7 -35 -6 -51 9
-82 11 -21 29 -43 42 -48 33 -15 87 -14 101 3 7 8 23 17 36 20 14 4 25 11 25
16 0 16 43 12 68 -6 13 -9 21 -22 19 -28 -3 -8 4 -12 22 -11 27 2 27 1 14 -25
-28 -57 -117 -126 -258 -199 -77 -41 -173 -94 -212 -120 l-73 -46 0 -177 0
-178 1000 0 1000 0 0 1000 0 1000 -561 0 c-309 0 -559 -3 -556 -7 12 -11 -15
-33 -39 -33 -13 0 -24 -4 -24 -10 0 -13 -69 -56 -103 -64 -26 -6 -27 -5 -17
13 6 12 23 27 38 35 19 11 22 15 10 16 -20 0 -22 8 -9 29 6 9 11 10 15 2 10
-16 26 -14 26 4 0 13 -50 15 -390 15 l-390 0 0 -415z m1160 391 c-10 -13 -7
-13 19 -3 24 9 33 8 43 -2 11 -10 10 -12 -2 -10 -8 2 -25 0 -36 -4 -12 -4 -34
-2 -50 4 l-29 12 30 7 c17 4 32 8 34 9 2 0 -2 -5 -9 -13z m167 -21 c0 -8 -4
-12 -9 -9 -5 3 -6 10 -3 15 9 13 12 11 12 -6z m-190 -315 c15 -16 37 -30 47
-30 47 0 101 -40 146 -108 39 -58 44 -74 45 -122 l0 -55 -67 -5 c-51 -4 -72
-10 -90 -27 -36 -34 -108 -25 -108 12 0 19 -20 29 -113 54 -106 29 -157 28
-191 -4 -30 -27 -34 -29 -54 -16 -12 7 -11 14 2 40 9 17 21 31 26 31 5 0 19
18 31 40 13 22 26 40 31 40 4 0 8 11 8 25 0 34 23 86 47 107 13 13 38 18 81
19 34 1 70 8 79 15 28 21 49 17 80 -16z m-529 -289 c48 -35 61 -69 63 -168 1
-40 5 -73 9 -73 4 0 11 30 15 66 8 73 28 104 69 104 45 0 56 -10 56 -50 0 -84
19 -101 134 -120 84 -13 105 -4 150 65 54 81 72 72 91 -47 5 -30 11 -38 38
-47 55 -17 140 -23 170 -12 l27 11 -19 -38 c-10 -20 -26 -60 -34 -88 -26 -87
-63 -147 -128 -207 -88 -82 -109 -91 -190 -83 -73 7 -94 14 -190 69 -101 57
-169 134 -169 192 0 10 -8 24 -17 32 -10 8 -12 12 -5 8 15 -8 16 28 1 57 -8
15 -8 19 0 14 6 -4 11 -1 11 7 0 15 -23 16 -53 3 -25 -12 -61 15 -92 68 -28
48 -51 152 -41 189 6 26 43 77 55 77 5 0 26 -13 49 -29z m267 -21 c4 -6 -9
-10 -32 -9 -34 1 -35 2 -13 9 35 11 38 11 45 0z m131 -61 c3 -6 0 -15 -7 -20
-10 -6 -8 -9 9 -9 12 0 22 6 22 13 0 10 10 12 38 8 20 -4 36 -10 36 -14 -4
-25 -58 -109 -76 -118 -27 -14 -151 6 -173 28 -8 8 -15 32 -15 54 l0 39 64 0
c48 0 65 4 70 15 6 18 22 20 32 4z m256 -51 c4 -12 80 -38 116 -38 12 0 22 -6
22 -12 1 -8 6 -6 14 5 13 16 14 16 19 -4 8 -28 -7 -65 -32 -78 -26 -14 -99
-14 -140 0 -38 14 -51 35 -51 88 0 32 3 39 15 35 8 -4 15 -1 15 5 0 15 17 14
22 -1z m78 -3 c0 -8 -4 -15 -10 -15 -5 0 -10 7 -10 15 0 8 5 15 10 15 6 0 10
-7 10 -15z m195 -74 c-4 -20 0 -32 14 -45 27 -25 50 -15 44 18 -4 21 -8 24
-19 15 -20 -17 -24 -8 -17 33 5 32 9 36 32 35 25 -2 26 -5 29 -65 3 -63 10
-74 31 -48 8 10 9 16 1 21 -6 3 -8 11 -4 16 4 6 11 6 20 -1 9 -9 12 -25 7 -56
-4 -30 -2 -44 6 -44 6 0 11 4 11 9 0 5 10 7 23 4 16 -3 18 -2 8 5 -10 7 -10
14 -2 30 13 25 41 37 41 17 0 -8 -4 -15 -10 -15 -5 0 -10 -7 -10 -15 0 -20 19
-19 42 2 17 15 19 15 34 -3 11 -14 14 -15 11 -3 -3 9 -2 22 3 28 11 19 48 4
52 -22 4 -27 23 -24 23 3 0 11 4 20 8 20 4 0 12 0 17 0 6 0 10 -9 10 -20 0
-11 7 -20 15 -20 13 0 15 -7 9 -35 -4 -24 -3 -35 6 -35 7 0 4 -12 -8 -32 -11
-18 -24 -55 -28 -83 -4 -27 -9 -44 -12 -37 -3 10 -7 10 -18 1 -17 -14 -18 -49
-1 -50 6 -1 18 -2 26 -3 16 -1 33 -50 24 -72 -3 -9 1 -14 12 -14 14 0 15 -6
10 -32 -4 -18 -11 -40 -16 -49 -11 -22 -57 -30 -67 -13 -4 8 -28 15 -56 16
l-48 3 -18 -45 c-9 -24 -22 -46 -29 -48 -13 -4 -15 15 -2 20 5 2 3 14 -4 28
-14 24 -14 24 -15 3 0 -12 -9 -27 -19 -33 -22 -11 -34 -1 -22 19 8 12 1 54
-21 133 -9 29 -16 37 -39 40 -49 7 -56 -5 -32 -54 20 -42 20 -44 2 -45 -11 -1
-19 2 -19 8 0 5 -9 9 -20 9 -11 0 -20 7 -20 15 0 8 -4 15 -10 15 -5 0 -10 -7
-10 -15 0 -8 -5 -15 -11 -15 -7 0 -9 -10 -5 -25 5 -18 2 -25 -8 -25 -9 0 -12
-7 -9 -20 7 -26 3 -25 -57 5 -27 14 -53 25 -58 25 -5 0 -31 9 -57 21 -46 20
-46 21 -29 40 10 11 26 18 35 16 11 -3 19 3 23 16 4 16 10 19 34 14 24 -5 31
-2 40 19 7 13 18 24 26 24 8 0 16 10 18 22 2 14 12 24 28 28 31 7 79 99 72
137 -3 17 1 29 12 35 9 5 16 13 16 18 0 16 -27 11 -34 -5 -3 -8 -9 -15 -13
-15 -12 0 -44 61 -37 71 3 5 2 18 -1 30 -5 14 -12 18 -26 14 -17 -6 -19 -3
-13 22 12 49 19 57 36 39 14 -14 17 -14 22 0 3 8 2 13 -2 10 -5 -3 -9 7 -9 23
0 27 1 27 19 9 14 -14 18 -27 13 -47z m-1375 -11 c0 -5 -5 -10 -11 -10 -5 0
-7 5 -4 10 3 6 8 10 11 10 2 0 4 -4 4 -10z m490 -137 c0 -47 18 -115 29 -109
4 3 17 -12 29 -32 28 -50 62 -81 160 -141 118 -74 198 -92 290 -65 24 7 24 7
8 -25 -29 -56 -2 -32 33 29 19 33 38 60 42 60 12 0 -19 -136 -41 -179 -27 -55
-98 -128 -132 -136 -20 -5 -52 4 -122 35 -53 23 -96 45 -96 49 0 3 -36 46 -79
94 -43 49 -86 105 -94 125 -8 21 -20 87 -27 147 -6 61 -14 127 -17 148 -3 23
-1 37 6 37 6 0 11 -17 11 -37z m999 -355 c1 -10 -6 -18 -14 -18 -16 0 -22 50
-8 64 8 8 21 -19 22 -46z"/>
<path d="M535 1350 c-3 -5 3 -10 15 -10 12 0 18 5 15 10 -3 6 -10 10 -15 10
-5 0 -12 -4 -15 -10z"/>
<path d="M610 1260 c-9 -6 -10 -10 -3 -10 6 0 15 5 18 10 8 12 4 12 -15 0z"/>
<path d="M1076 1022 c-4 -7 -1 -12 8 -12 9 0 16 -5 16 -10 0 -6 11 -15 24 -21
19 -9 29 -7 50 6 15 10 25 20 22 22 -3 3 -15 -2 -27 -10 -24 -17 -47 -12 -70
17 -11 13 -18 16 -23 8z"/>
<path d="M950 910 c30 -27 57 -46 60 -44 3 3 -6 14 -19 25 -13 10 -19 19 -13
19 15 0 9 34 -8 42 -8 4 -28 7 -45 7 -30 1 -30 0 25 -49z"/>
<path d="M1088 923 c7 -3 16 -2 19 1 4 3 -2 6 -13 5 -11 0 -14 -3 -6 -6z"/>
<path d="M1178 913 c6 -2 12 -11 12 -19 0 -17 5 -17 32 -3 17 9 18 13 7 20 -8
5 -25 8 -39 8 -14 0 -19 -3 -12 -6z"/>
<path d="M1740 1020 c0 -5 5 -10 10 -10 6 0 10 5 10 10 0 6 -4 10 -10 10 -5 0
-10 -4 -10 -10z"/>
<path d="M1660 730 c0 -5 7 -10 16 -10 8 0 12 5 9 10 -3 6 -10 10 -16 10 -5 0
-9 -4 -9 -10z"/>
<path d="M73 1090 c2 -8 14 -16 28 -17 19 -1 20 -1 4 4 -11 3 -24 10 -28 17
-6 7 -7 6 -4 -4z"/>
<path d="M0 683 l0 -213 24 0 c37 0 69 15 106 48 18 17 39 28 46 25 10 -3 14
3 14 20 0 14 8 31 18 36 16 10 16 12 -2 26 -16 12 -17 15 -4 20 9 4 18 15 21
25 4 16 1 18 -23 14 -19 -4 -29 -1 -33 10 -6 15 -9 15 -30 1 -21 -14 -25 -13
-45 5 -12 11 -26 20 -31 20 -18 0 -28 34 -26 80 2 33 -2 53 -16 70 -18 25 -19
23 -19 -187z"/>
<path d="M265 699 c-11 -17 -2 -18 25 -4 24 14 24 14 3 15 -12 0 -25 -5 -28
-11z"/>
</g>
</svg>
